<svg xmlns="http://www.w3.org/2000/svg" xmlns:xlink="http://www.w3.org/1999/xlink" width="512" zoomAndPan="magnify" viewBox="0 0 384 383.999986" height="512" preserveAspectRatio="xMidYMid meet" version="1.0"><defs><g/></defs><rect x="-38.4" width="460.8" fill="#ffffff" y="-38.399999" height="460.799983" fill-opacity="1"/><rect x="-38.4" width="460.8" fill="#fffdd0" y="-38.399999" height="460.799983" fill-opacity="1"/><g fill="#9c6b2f" fill-opacity="1"><g transform="translate(10.74903, 214.449974)"><g><path d="M 18.90625 -5.09375 C 21.726562 -4.707031 24.484375 -3.9375 27.171875 -2.78125 L 27.171875 0 L 2.78125 0 L 2.78125 -2.78125 C 3.875 -3.289062 4.992188 -3.738281 6.140625 -4.125 C 7.296875 -4.507812 8.484375 -4.832031 9.703125 -5.09375 L 9.703125 -62.015625 C 8.285156 -62.335938 7 -62.707031 5.84375 -63.125 C 4.695312 -63.539062 3.675781 -63.972656 2.78125 -64.421875 L 2.78125 -67.203125 L 47.8125 -67.203125 C 47.75 -64.703125 47.632812 -62.140625 47.46875 -59.515625 C 47.3125 -56.890625 47.070312 -54.265625 46.75 -51.640625 L 44.25 -51.640625 L 40.3125 -62.203125 L 18.90625 -62.203125 L 18.90625 -34.84375 L 35.515625 -34.84375 L 39.453125 -41.953125 L 41.65625 -41.953125 C 41.789062 -40.484375 41.890625 -38.929688 41.953125 -37.296875 C 42.015625 -35.660156 42.046875 -34.015625 42.046875 -32.359375 C 42.046875 -30.628906 42.015625 -28.929688 41.953125 -27.265625 C 41.890625 -25.597656 41.789062 -24.03125 41.65625 -22.5625 L 39.453125 -22.5625 L 35.515625 -29.953125 L 18.90625 -29.953125 Z M 18.90625 -5.09375 "/></g></g></g><g fill="#9c6b2f" fill-opacity="1"><g transform="translate(62.97304, 214.449974)"><g><path d="M 25.25 0 L 3.9375 0 L 3.9375 -2.40625 C 4.894531 -2.914062 5.882812 -3.34375 6.90625 -3.6875 C 7.9375 -4.039062 9.054688 -4.378906 10.265625 -4.703125 L 10.265625 -42.4375 L 3.9375 -43.203125 L 3.9375 -45.703125 C 5.789062 -46.460938 7.804688 -47.128906 9.984375 -47.703125 C 12.160156 -48.285156 14.335938 -48.769531 16.515625 -49.15625 L 18.90625 -49.15625 L 18.90625 -4.703125 C 20.1875 -4.378906 21.335938 -4.039062 22.359375 -3.6875 C 23.390625 -3.34375 24.351562 -2.914062 25.25 -2.40625 Z M 8.453125 -64.3125 C 8.453125 -66.039062 9.007812 -67.414062 10.125 -68.4375 C 11.25 -69.46875 12.738281 -69.984375 14.59375 -69.984375 C 16.445312 -69.984375 17.914062 -69.46875 19 -68.4375 C 20.09375 -67.414062 20.640625 -66.039062 20.640625 -64.3125 C 20.640625 -62.59375 20.09375 -61.234375 19 -60.234375 C 17.914062 -59.242188 16.445312 -58.75 14.59375 -58.75 C 12.738281 -58.75 11.25 -59.242188 10.125 -60.234375 C 9.007812 -61.234375 8.453125 -62.59375 8.453125 -64.3125 Z M 8.453125 -64.3125 "/></g></g></g><g fill="#9c6b2f" fill-opacity="1"><g transform="translate(91.869038, 214.449974)"><g><path d="M 55.390625 0 L 34.75 0 L 34.75 -2.40625 C 36.476562 -3.300781 38.367188 -4.066406 40.421875 -4.703125 L 40.421875 -27.453125 C 40.421875 -32.316406 39.710938 -36.15625 38.296875 -38.96875 C 36.890625 -41.789062 34.332031 -43.203125 30.625 -43.203125 C 29.019531 -43.203125 27.53125 -42.910156 26.15625 -42.328125 C 24.78125 -41.753906 23.5625 -40.972656 22.5 -39.984375 C 21.445312 -38.992188 20.535156 -37.875 19.765625 -36.625 C 19.003906 -35.375 18.398438 -34.078125 17.953125 -32.734375 L 17.953125 -4.703125 C 19.929688 -4.316406 21.851562 -3.550781 23.71875 -2.40625 L 23.71875 0 L 2.96875 0 L 2.96875 -2.40625 C 4.570312 -3.226562 6.6875 -3.992188 9.3125 -4.703125 L 9.3125 -42.4375 L 2.96875 -43.203125 L 2.96875 -45.703125 C 4.632812 -46.398438 6.554688 -47.035156 8.734375 -47.609375 C 10.910156 -48.191406 13.179688 -48.707031 15.546875 -49.15625 L 17.953125 -49.15625 L 17.953125 -38.40625 L 18.046875 -38.40625 C 19.390625 -41.34375 21.320312 -43.867188 23.84375 -45.984375 C 26.375 -48.097656 29.4375 -49.15625 33.03125 -49.15625 C 35.582031 -49.15625 37.863281 -48.847656 39.875 -48.234375 C 41.894531 -47.628906 43.578125 -46.554688 44.921875 -45.015625 C 46.265625 -43.484375 47.289062 -41.421875 48 -38.828125 C 48.707031 -36.234375 49.0625 -32.953125 49.0625 -28.984375 L 49.0625 -4.703125 C 51.613281 -4.253906 53.722656 -3.488281 55.390625 -2.40625 Z M 55.390625 0 "/></g></g></g><g fill="#9c6b2f" fill-opacity="1"><g transform="translate(148.893043, 214.449974)"><g><path d="M 39.359375 -12.578125 C 39.359375 -11.171875 39.390625 -9.953125 39.453125 -8.921875 C 39.515625 -7.898438 39.578125 -6.8125 39.640625 -5.65625 L 46.265625 -4.703125 L 46.265625 -2.6875 C 44.671875 -1.851562 42.894531 -1.113281 40.9375 -0.46875 C 38.988281 0.164062 37.117188 0.640625 35.328125 0.953125 L 32.921875 0.953125 C 32.285156 -0.515625 31.898438 -2.128906 31.765625 -3.890625 C 31.640625 -5.648438 31.546875 -7.585938 31.484375 -9.703125 L 31.015625 -9.703125 C 30.753906 -8.421875 30.253906 -7.125 29.515625 -5.8125 C 28.785156 -4.5 27.828125 -3.328125 26.640625 -2.296875 C 25.453125 -1.273438 24.054688 -0.445312 22.453125 0.1875 C 20.859375 0.832031 19.035156 1.15625 16.984375 1.15625 C 13.085938 1.15625 9.90625 -0.0234375 7.4375 -2.390625 C 4.976562 -4.765625 3.75 -7.875 3.75 -11.71875 C 3.75 -14.65625 4.335938 -17.066406 5.515625 -18.953125 C 6.703125 -20.847656 8.445312 -22.335938 10.75 -23.421875 C 13.050781 -24.515625 15.898438 -25.300781 19.296875 -25.78125 C 22.691406 -26.257812 26.628906 -26.625 31.109375 -26.875 C 31.359375 -29.632812 31.4375 -32.113281 31.34375 -34.3125 C 31.25 -36.519531 30.894531 -38.410156 30.28125 -39.984375 C 29.675781 -41.554688 28.78125 -42.769531 27.59375 -43.625 C 26.414062 -44.488281 24.863281 -44.921875 22.9375 -44.921875 C 22.039062 -44.921875 21.03125 -44.875 19.90625 -44.78125 C 18.789062 -44.6875 17.691406 -44.414062 16.609375 -43.96875 L 12.09375 -32.453125 L 9.59375 -32.453125 C 8.957031 -34.367188 8.398438 -36.347656 7.921875 -38.390625 C 7.441406 -40.441406 7.140625 -42.460938 7.015625 -44.453125 C 9.441406 -45.921875 12.140625 -47.070312 15.109375 -47.90625 C 18.085938 -48.738281 21.40625 -49.15625 25.0625 -49.15625 C 28.320312 -49.15625 30.925781 -48.691406 32.875 -47.765625 C 34.832031 -46.835938 36.320312 -45.632812 37.34375 -44.15625 C 38.363281 -42.6875 39.035156 -41.054688 39.359375 -39.265625 C 39.679688 -37.472656 39.84375 -35.679688 39.84375 -33.890625 C 39.84375 -30.046875 39.757812 -26.347656 39.59375 -22.796875 C 39.4375 -19.242188 39.359375 -15.835938 39.359375 -12.578125 Z M 20.828125 -4.796875 C 22.429688 -4.796875 23.835938 -5.113281 25.046875 -5.75 C 26.265625 -6.394531 27.289062 -7.164062 28.125 -8.0625 C 28.957031 -8.957031 29.628906 -9.867188 30.140625 -10.796875 C 30.648438 -11.722656 31.003906 -12.507812 31.203125 -13.15625 L 31.203125 -23.234375 C 27.484375 -23.234375 24.441406 -23.039062 22.078125 -22.65625 C 19.710938 -22.269531 17.859375 -21.660156 16.515625 -20.828125 C 15.171875 -19.992188 14.238281 -18.953125 13.71875 -17.703125 C 13.207031 -16.460938 12.953125 -15.039062 12.953125 -13.4375 C 12.953125 -10.6875 13.65625 -8.554688 15.0625 -7.046875 C 16.476562 -5.546875 18.398438 -4.796875 20.828125 -4.796875 Z M 20.828125 -4.796875 "/></g></g></g><g fill="#9c6b2f" fill-opacity="1"><g transform="translate(197.37305, 214.449974)"><g><path d="M 55.390625 0 L 34.75 0 L 34.75 -2.40625 C 36.476562 -3.300781 38.367188 -4.066406 40.421875 -4.703125 L 40.421875 -27.453125 C 40.421875 -32.316406 39.710938 -36.15625 38.296875 -38.96875 C 36.890625 -41.789062 34.332031 -43.203125 30.625 -43.203125 C 29.019531 -43.203125 27.53125 -42.910156 26.15625 -42.328125 C 24.78125 -41.753906 23.5625 -40.972656 22.5 -39.984375 C 21.445312 -38.992188 20.535156 -37.875 19.765625 -36.625 C 19.003906 -35.375 18.398438 -34.078125 17.953125 -32.734375 L 17.953125 -4.703125 C 19.929688 -4.316406 21.851562 -3.550781 23.71875 -2.40625 L 23.71875 0 L 2.96875 0 L 2.96875 -2.40625 C 4.570312 -3.226562 6.6875 -3.992188 9.3125 -4.703125 L 9.3125 -42.4375 L 2.96875 -43.203125 L 2.96875 -45.703125 C 4.632812 -46.398438 6.554688 -47.035156 8.734375 -47.609375 C 10.910156 -48.191406 13.179688 -48.707031 15.546875 -49.15625 L 17.953125 -49.15625 L 17.953125 -38.40625 L 18.046875 -38.40625 C 19.390625 -41.34375 21.320312 -43.867188 23.84375 -45.984375 C 26.375 -48.097656 29.4375 -49.15625 33.03125 -49.15625 C 35.582031 -49.15625 37.863281 -48.847656 39.875 -48.234375 C 41.894531 -47.628906 43.578125 -46.554688 44.921875 -45.015625 C 46.265625 -43.484375 47.289062 -41.421875 48 -38.828125 C 48.707031 -36.234375 49.0625 -32.953125 49.0625 -28.984375 L 49.0625 -4.703125 C 51.613281 -4.253906 53.722656 -3.488281 55.390625 -2.40625 Z M 55.390625 0 "/></g></g></g><g fill="#9c6b2f" fill-opacity="1"><g transform="translate(254.397067, 214.449974)"><g><path d="M 40.984375 -6.71875 C 39.835938 -4.476562 37.96875 -2.601562 35.375 -1.09375 C 32.78125 0.40625 29.753906 1.15625 26.296875 1.15625 C 22.523438 1.15625 19.242188 0.5625 16.453125 -0.625 C 13.671875 -1.8125 11.351562 -3.507812 9.5 -5.71875 C 7.644531 -7.925781 6.253906 -10.582031 5.328125 -13.6875 C 4.398438 -16.789062 3.9375 -20.226562 3.9375 -24 C 3.9375 -32.125 5.921875 -38.347656 9.890625 -42.671875 C 13.859375 -46.992188 19.265625 -49.15625 26.109375 -49.15625 C 29.242188 -49.15625 32.039062 -48.878906 34.5 -48.328125 C 36.96875 -47.785156 39.066406 -47.066406 40.796875 -46.171875 C 40.609375 -44.066406 40.253906 -41.703125 39.734375 -39.078125 C 39.222656 -36.453125 38.585938 -34.273438 37.828125 -32.546875 L 35.234375 -32.546875 L 31.203125 -43.96875 C 30.753906 -44.289062 30.238281 -44.53125 29.65625 -44.6875 C 29.082031 -44.84375 28.125 -44.921875 26.78125 -44.921875 C 22.425781 -44.921875 19.066406 -43.335938 16.703125 -40.171875 C 14.335938 -37.003906 13.15625 -31.644531 13.15625 -24.09375 C 13.15625 -21.664062 13.488281 -19.296875 14.15625 -16.984375 C 14.832031 -14.679688 15.859375 -12.617188 17.234375 -10.796875 C 18.609375 -8.972656 20.332031 -7.515625 22.40625 -6.421875 C 24.488281 -5.335938 26.90625 -4.796875 29.65625 -4.796875 C 31.90625 -4.796875 33.859375 -5.113281 35.515625 -5.75 C 37.179688 -6.394531 38.59375 -7.164062 39.75 -8.0625 Z M 40.984375 -6.71875 "/></g></g></g><g fill="#9c6b2f" fill-opacity="1"><g transform="translate(297.404922, 214.449974)"><g><path d="M 42.8125 -6.71875 C 42.300781 -5.632812 41.5 -4.609375 40.40625 -3.640625 C 39.320312 -2.679688 38.078125 -1.847656 36.671875 -1.140625 C 35.265625 -0.441406 33.726562 0.113281 32.0625 0.53125 C 30.394531 0.945312 28.695312 1.15625 26.96875 1.15625 C 23.195312 1.15625 19.867188 0.5625 16.984375 -0.625 C 14.109375 -1.8125 11.707031 -3.507812 9.78125 -5.71875 C 7.863281 -7.925781 6.410156 -10.5625 5.421875 -13.625 C 4.429688 -16.695312 3.9375 -20.15625 3.9375 -24 C 3.9375 -32.1875 5.820312 -38.425781 9.59375 -42.71875 C 13.375 -47.007812 18.71875 -49.15625 25.625 -49.15625 C 27.863281 -49.15625 30.070312 -48.847656 32.25 -48.234375 C 34.425781 -47.628906 36.363281 -46.625 38.0625 -45.21875 C 39.757812 -43.8125 41.132812 -41.9375 42.1875 -39.59375 C 43.25 -37.257812 43.78125 -34.363281 43.78125 -30.90625 C 43.78125 -29.820312 43.726562 -28.71875 43.625 -27.59375 C 43.53125 -26.476562 43.359375 -25.28125 43.109375 -24 L 13.15625 -24 C 13.15625 -21.3125 13.488281 -18.796875 14.15625 -16.453125 C 14.832031 -14.117188 15.84375 -12.085938 17.1875 -10.359375 C 18.53125 -8.640625 20.222656 -7.28125 22.265625 -6.28125 C 24.316406 -5.289062 26.71875 -4.796875 29.46875 -4.796875 C 31.707031 -4.796875 33.976562 -5.113281 36.28125 -5.75 C 38.59375 -6.394531 40.320312 -7.226562 41.46875 -8.25 Z M 25.25 -44.921875 C 21.601562 -44.921875 18.816406 -43.6875 16.890625 -41.21875 C 14.972656 -38.757812 13.820312 -34.425781 13.4375 -28.21875 L 34.5625 -28.21875 C 34.625 -28.800781 34.671875 -29.363281 34.703125 -29.90625 C 34.734375 -30.445312 34.75 -30.972656 34.75 -31.484375 C 34.75 -35.578125 33.976562 -38.835938 32.4375 -41.265625 C 30.90625 -43.703125 28.507812 -44.921875 25.25 -44.921875 Z M 25.25 -44.921875 "/></g></g></g><g fill="#9c6b2f" fill-opacity="1"><g transform="translate(345.692943, 214.449974)"><g><path d="M 6.8125 -5.46875 C 6.8125 -7.394531 7.421875 -8.929688 8.640625 -10.078125 C 9.859375 -11.234375 11.425781 -11.8125 13.34375 -11.8125 C 15.320312 -11.8125 16.921875 -11.234375 18.140625 -10.078125 C 19.359375 -8.929688 19.96875 -7.394531 19.96875 -5.46875 C 19.96875 -3.613281 19.359375 -2.109375 18.140625 -0.953125 C 16.921875 0.191406 15.320312 0.765625 13.34375 0.765625 C 11.425781 0.765625 9.859375 0.191406 8.640625 -0.953125 C 7.421875 -2.109375 6.8125 -3.613281 6.8125 -5.46875 Z M 6.8125 -5.46875 "/></g></g></g></svg>